{"asset":{"generator":"Khronos glTF Spline I/O v0.0.1","version":"2.0"},"scenes":[{"nodes":[0]}],"nodes":[{"name":"Shapes Light Mode","children":[1,2,3,4]},{"name":"Pyramid copy","matrix":[1,0,0,0,0,1,0,0,0,0,1,0,304.875,245.00496948242184,10.999999999999204,1],"mesh":0},{"name":"Icosahedron copy","matrix":[1,0,0,0,0,1,0,0,0,0,1,0,628.375,517.1249694824219,-56.500000000000796,1],"mesh":1},{"name":"Cylinder copy","matrix":[1,0,0,0,0,1,0,0,0,0,1,0,-73.625,634.6249694824219,-116.5000000000008,1],"mesh":2},{"name":"Default Camera","camera":0,"translation":[0,395.00000000000006,1000],"rotation":[-2.842170943040401e-17,0,0,1],"children":[5]},{"name":"Default Directional Light","translation":[850000,1300000,1000000],"rotation":[-0.45895513091666534,0.1367267597249462,-0.25064115022945466,0.8413352451859125],"extensions":{"KHR_lights_punctual":{"light":0}}}],"cameras":[{"type":"orthographic","orthographic":{"xmag":1766,"ymag":1116,"zfar":50000,"znear":-50000}}],"meshes":[{"primitives":[{"attributes":{"POSITION":1,"NORMAL":2,"TEXCOORD_0":3},"indices":0}]},{"primitives":[{"attributes":{"POSITION":4,"NORMAL":5,"TEXCOORD_0":6}}]},{"primitives":[{"attributes":{"POSITION":8,"NORMAL":9,"TEXCOORD_0":10},"indices":7}]}],"buffers":[{"uri":"data:application/octet-stream;base64,","byteLength":19408},{"uri":"data:application/octet-stream;base64,","byteLength":174720},{"uri":"data:application/octet-stream;base64,","byteLength":113920}],"bufferViews":[{"buffer":0,"byteOffset":0,"byteLength":3888,"target":34963},{"buffer":0,"byteOffset":3888,"byteLength":5820,"target":34962},{"buffer":0,"byteOffset":9708,"byteLength":5820,"target":34962},{"buffer":0,"byteOffset":15528,"byteLength":3880,"target":34962},{"buffer":1,"byteOffset":0,"byteLength":65520,"target":34962},{"buffer":1,"byteOffset":65520,"byteLength":65520,"target":34962},{"buffer":1,"byteOffset":131040,"byteLength":43680,"target":34962},{"buffer":2,"byteOffset":0,"byteLength":30720,"target":34963},{"buffer":2,"byteOffset":30720,"byteLength":31200,"target":34962},{"buffer":2,"byteOffset":61920,"byteLength":31200,"target":34962},{"buffer":2,"byteOffset":93120,"byteLength":20800,"target":34962}],"accessors":[{"bufferView":0,"byteOffset":0,"componentType":5123,"count":1944,"type":"SCALAR","min":[0],"max":[484]},{"bufferView":1,"byteOffset":0,"componentType":5126,"count":485,"type":"VEC3","min":[-164.22982788085938,-237,-164.22982788085938],"max":[164.22982788085938,221,164.22982788085938]},{"bufferView":2,"byteOffset":0,"componentType":5126,"count":485,"type":"VEC3","min":[-0.994903028011322,-1,-0.994903028011322],"max":[0.994903028011322,1,0.994903028011322]},{"bufferView":3,"byteOffset":0,"componentType":5126,"count":485,"type":"VEC2","min":[0,0],"max":[0,0]},{"bufferView":4,"byteOffset":0,"componentType":5126,"count":5460,"type":"VEC3","min":[-140.85931396484375,-140.85931396484375,-140.85931396484375],"max":[140.85931396484375,140.85931396484375,140.85931396484375]},{"bufferView":5,"byteOffset":0,"componentType":5126,"count":5460,"type":"VEC3","min":[-0.9973386526107788,-0.9973386526107788,-0.9973386526107788],"max":[0.9973386526107788,0.9973386526107788,0.9973386526107788]},{"bufferView":6,"byteOffset":0,"componentType":5126,"count":5460,"type":"VEC2","min":[0,0.16532453894615173],"max":[1.082985758781433,0.8346754312515259]},{"bufferView":7,"byteOffset":0,"componentType":5123,"count":15360,"type":"SCALAR","min":[0],"max":[2599]},{"bufferView":8,"byteOffset":0,"componentType":5126,"count":2600,"type":"VEC3","min":[-141.5,-141.5,-141.5],"max":[141.5,141.5,141.5]},{"bufferView":9,"byteOffset":0,"componentType":5126,"count":2600,"type":"VEC3","min":[-1,-1,-1],"max":[1,1,1]},{"bufferView":10,"byteOffset":0,"componentType":5126,"count":2600,"type":"VEC2","min":[0,0],"max":[1,1]}],"extensions":{"KHR_lights_punctual":{"lights":[{"type":"directional","name":"Default Directional Light","color":[1,1,1],"intensity":0.75}]}},"extensionsUsed":["KHR_lights_punctual"]}