<svg id="visual" viewBox="0 0 900 600" width="900" height="600" xmlns="http://www.w3.org/2000/svg" xmlns:xlink="http://www.w3.org/1999/xlink" version="1.1"><g stroke-width="1" stroke-linejoin="bevel"><path d="M423 276L476 200L384 229Z" fill="#112e42" stroke="#112e42"></path><path d="M423 276L491 277L476 200Z" fill="#1d4e6b" stroke="#1d4e6b"></path><path d="M476 200L434 121L384 229Z" fill="#112e42" stroke="#112e42"></path><path d="M434 121L314 167L384 229Z" fill="#277297" stroke="#277297"></path><path d="M384 229L277 275L423 276Z" fill="#297ea6" stroke="#297ea6"></path><path d="M491 277L588 195L476 200Z" fill="#00101c" stroke="#00101c"></path><path d="M476 200L470 61L434 121Z" fill="#297ea6" stroke="#297ea6"></path><path d="M314 167L277 275L384 229Z" fill="#205a7a" stroke="#205a7a"></path><path d="M538 376L601 286L491 277Z" fill="#246688" stroke="#246688"></path><path d="M588 195L470 61L476 200Z" fill="#1d4e6b" stroke="#1d4e6b"></path><path d="M434 121L317 61L314 167Z" fill="#246688" stroke="#246688"></path><path d="M538 376L491 277L423 276Z" fill="#081a28" stroke="#081a28"></path><path d="M491 277L601 286L588 195Z" fill="#205a7a" stroke="#205a7a"></path><path d="M381 418L538 376L423 276Z" fill="#297ea6" stroke="#297ea6"></path><path d="M334 408L381 418L423 276Z" fill="#081a28" stroke="#081a28"></path><path d="M376 0L317 61L434 121Z" fill="#15384f" stroke="#15384f"></path><path d="M314 167L218 181L277 275Z" fill="#205a7a" stroke="#205a7a"></path><path d="M277 275L334 408L423 276Z" fill="#205a7a" stroke="#205a7a"></path><path d="M213 100L218 181L314 167Z" fill="#1d4e6b" stroke="#1d4e6b"></path><path d="M277 275L210 334L334 408Z" fill="#246688" stroke="#246688"></path><path d="M621 0L489 0L470 61Z" fill="#246688" stroke="#246688"></path><path d="M470 61L376 0L434 121Z" fill="#19435d" stroke="#19435d"></path><path d="M489 0L376 0L470 61Z" fill="#205a7a" stroke="#205a7a"></path><path d="M687 123L635 92L588 195Z" fill="#246688" stroke="#246688"></path><path d="M588 195L635 92L470 61Z" fill="#0c2435" stroke="#0c2435"></path><path d="M725 329L678 229L601 286Z" fill="#246688" stroke="#246688"></path><path d="M601 286L678 229L588 195Z" fill="#297ea6" stroke="#297ea6"></path><path d="M218 181L210 334L277 275Z" fill="#0c2435" stroke="#0c2435"></path><path d="M317 61L213 100L314 167Z" fill="#19435d" stroke="#19435d"></path><path d="M218 181L102 300L210 334Z" fill="#15384f" stroke="#15384f"></path><path d="M221 0L213 100L317 61Z" fill="#081a28" stroke="#081a28"></path><path d="M376 0L318 0L317 61Z" fill="#1d4e6b" stroke="#1d4e6b"></path><path d="M594 468L619 424L538 376Z" fill="#00101c" stroke="#00101c"></path><path d="M538 376L663 376L601 286Z" fill="#277297" stroke="#277297"></path><path d="M323 485L389 495L381 418Z" fill="#246688" stroke="#246688"></path><path d="M381 418L512 498L538 376Z" fill="#00101c" stroke="#00101c"></path><path d="M323 485L381 418L334 408Z" fill="#19435d" stroke="#19435d"></path><path d="M619 424L663 376L538 376Z" fill="#205a7a" stroke="#205a7a"></path><path d="M678 229L687 123L588 195Z" fill="#19435d" stroke="#19435d"></path><path d="M635 92L621 0L470 61Z" fill="#297ea6" stroke="#297ea6"></path><path d="M233 473L323 485L334 408Z" fill="#205a7a" stroke="#205a7a"></path><path d="M389 495L512 498L381 418Z" fill="#00101c" stroke="#00101c"></path><path d="M512 498L594 468L538 376Z" fill="#277297" stroke="#277297"></path><path d="M619 424L728 513L663 376Z" fill="#15384f" stroke="#15384f"></path><path d="M680 0L621 0L635 92Z" fill="#00101c" stroke="#00101c"></path><path d="M102 300L199 417L210 334Z" fill="#00101c" stroke="#00101c"></path><path d="M210 334L199 417L334 408Z" fill="#0c2435" stroke="#0c2435"></path><path d="M828 377L725 329L663 376Z" fill="#297ea6" stroke="#297ea6"></path><path d="M663 376L725 329L601 286Z" fill="#00101c" stroke="#00101c"></path><path d="M678 229L760 185L687 123Z" fill="#297ea6" stroke="#297ea6"></path><path d="M318 0L221 0L317 61Z" fill="#19435d" stroke="#19435d"></path><path d="M199 417L233 473L334 408Z" fill="#1d4e6b" stroke="#1d4e6b"></path><path d="M323 485L379 600L389 495Z" fill="#0c2435" stroke="#0c2435"></path><path d="M725 329L760 185L678 229Z" fill="#081a28" stroke="#081a28"></path><path d="M687 123L680 0L635 92Z" fill="#00101c" stroke="#00101c"></path><path d="M121 0L121 113L213 100Z" fill="#112e42" stroke="#112e42"></path><path d="M213 100L121 113L218 181Z" fill="#205a7a" stroke="#205a7a"></path><path d="M121 113L103 187L218 181Z" fill="#246688" stroke="#246688"></path><path d="M761 0L680 0L687 123Z" fill="#277297" stroke="#277297"></path><path d="M103 187L102 300L218 181Z" fill="#112e42" stroke="#112e42"></path><path d="M199 417L114 493L233 473Z" fill="#00101c" stroke="#00101c"></path><path d="M760 185L783 103L687 123Z" fill="#081a28" stroke="#081a28"></path><path d="M900 233L783 103L760 185Z" fill="#081a28" stroke="#081a28"></path><path d="M278 600L379 600L323 485Z" fill="#246688" stroke="#246688"></path><path d="M389 495L494 600L512 498Z" fill="#00101c" stroke="#00101c"></path><path d="M512 498L636 600L594 468Z" fill="#205a7a" stroke="#205a7a"></path><path d="M379 600L494 600L389 495Z" fill="#297ea6" stroke="#297ea6"></path><path d="M828 377L821 278L725 329Z" fill="#246688" stroke="#246688"></path><path d="M0 120L0 225L103 187Z" fill="#246688" stroke="#246688"></path><path d="M221 0L121 0L213 100Z" fill="#112e42" stroke="#112e42"></path><path d="M728 513L619 424L594 468Z" fill="#205a7a" stroke="#205a7a"></path><path d="M725 329L821 278L760 185Z" fill="#205a7a" stroke="#205a7a"></path><path d="M102 300L101 435L199 417Z" fill="#19435d" stroke="#19435d"></path><path d="M233 473L278 600L323 485Z" fill="#277297" stroke="#277297"></path><path d="M900 67L761 0L783 103Z" fill="#00101c" stroke="#00101c"></path><path d="M783 103L761 0L687 123Z" fill="#19435d" stroke="#19435d"></path><path d="M187 600L278 600L233 473Z" fill="#112e42" stroke="#112e42"></path><path d="M636 600L728 513L594 468Z" fill="#15384f" stroke="#15384f"></path><path d="M101 435L114 493L199 417Z" fill="#297ea6" stroke="#297ea6"></path><path d="M728 513L828 377L663 376Z" fill="#15384f" stroke="#15384f"></path><path d="M494 600L636 600L512 498Z" fill="#00101c" stroke="#00101c"></path><path d="M0 120L103 187L121 113Z" fill="#277297" stroke="#277297"></path><path d="M103 187L0 225L102 300Z" fill="#297ea6" stroke="#297ea6"></path><path d="M102 300L0 391L101 435Z" fill="#081a28" stroke="#081a28"></path><path d="M101 435L0 532L114 493Z" fill="#246688" stroke="#246688"></path><path d="M0 225L0 292L102 300Z" fill="#246688" stroke="#246688"></path><path d="M636 600L670 600L728 513Z" fill="#0c2435" stroke="#0c2435"></path><path d="M728 513L831 462L828 377Z" fill="#205a7a" stroke="#205a7a"></path><path d="M0 0L0 120L121 113Z" fill="#277297" stroke="#277297"></path><path d="M114 493L187 600L233 473Z" fill="#1d4e6b" stroke="#1d4e6b"></path><path d="M900 486L831 462L834 600Z" fill="#297ea6" stroke="#297ea6"></path><path d="M0 292L0 391L102 300Z" fill="#19435d" stroke="#19435d"></path><path d="M114 493L131 600L187 600Z" fill="#19435d" stroke="#19435d"></path><path d="M900 310L900 233L821 278Z" fill="#112e42" stroke="#112e42"></path><path d="M821 278L900 233L760 185Z" fill="#19435d" stroke="#19435d"></path><path d="M900 310L821 278L828 377Z" fill="#0c2435" stroke="#0c2435"></path><path d="M900 429L900 310L828 377Z" fill="#0c2435" stroke="#0c2435"></path><path d="M0 532L131 600L114 493Z" fill="#297ea6" stroke="#297ea6"></path><path d="M121 0L0 0L121 113Z" fill="#246688" stroke="#246688"></path><path d="M900 233L900 67L783 103Z" fill="#277297" stroke="#277297"></path><path d="M900 486L900 429L831 462Z" fill="#205a7a" stroke="#205a7a"></path><path d="M831 462L900 429L828 377Z" fill="#205a7a" stroke="#205a7a"></path><path d="M900 67L900 0L761 0Z" fill="#205a7a" stroke="#205a7a"></path><path d="M0 391L0 532L101 435Z" fill="#297ea6" stroke="#297ea6"></path><path d="M834 600L831 462L728 513Z" fill="#081a28" stroke="#081a28"></path><path d="M670 600L834 600L728 513Z" fill="#0c2435" stroke="#0c2435"></path><path d="M0 532L0 600L131 600Z" fill="#15384f" stroke="#15384f"></path><path d="M834 600L900 600L900 486Z" fill="#246688" stroke="#246688"></path></g></svg>