<svg id="visual" viewBox="0 0 960 540" width="960" height="540" xmlns="http://www.w3.org/2000/svg" xmlns:xlink="http://www.w3.org/1999/xlink" version="1.1"><path d="M0 254L26.7 247.5C53.3 241 106.7 228 160 219.5C213.3 211 266.7 207 320 214.5C373.3 222 426.7 241 480 247.5C533.3 254 586.7 248 640 234.3C693.3 220.7 746.7 199.3 800 204.8C853.3 210.3 906.7 242.7 933.3 258.8L960 275L960 0L933.3 0C906.7 0 853.3 0 800 0C746.7 0 693.3 0 640 0C586.7 0 533.3 0 480 0C426.7 0 373.3 0 320 0C266.7 0 213.3 0 160 0C106.7 0 53.3 0 26.7 0L0 0Z" fill="#00d5ff"></path><path d="M0 165L26.7 174.8C53.3 184.7 106.7 204.3 160 212C213.3 219.7 266.7 215.3 320 205.7C373.3 196 426.7 181 480 181.3C533.3 181.7 586.7 197.3 640 189.7C693.3 182 746.7 151 800 148.5C853.3 146 906.7 172 933.3 185L960 198L960 0L933.3 0C906.7 0 853.3 0 800 0C746.7 0 693.3 0 640 0C586.7 0 533.3 0 480 0C426.7 0 373.3 0 320 0C266.7 0 213.3 0 160 0C106.7 0 53.3 0 26.7 0L0 0Z" fill="#3ebbff"></path><path d="M0 126L26.7 124.5C53.3 123 106.7 120 160 117C213.3 114 266.7 111 320 107.7C373.3 104.3 426.7 100.7 480 111.8C533.3 123 586.7 149 640 154.2C693.3 159.3 746.7 143.7 800 133.2C853.3 122.7 906.7 117.3 933.3 114.7L960 112L960 0L933.3 0C906.7 0 853.3 0 800 0C746.7 0 693.3 0 640 0C586.7 0 533.3 0 480 0C426.7 0 373.3 0 320 0C266.7 0 213.3 0 160 0C106.7 0 53.3 0 26.7 0L0 0Z" fill="#9399ff"></path><path d="M0 68L26.7 65.2C53.3 62.3 106.7 56.7 160 61.7C213.3 66.7 266.7 82.3 320 97C373.3 111.7 426.7 125.3 480 126.8C533.3 128.3 586.7 117.7 640 106.2C693.3 94.7 746.7 82.3 800 74C853.3 65.7 906.7 61.3 933.3 59.2L960 57L960 0L933.3 0C906.7 0 853.3 0 800 0C746.7 0 693.3 0 640 0C586.7 0 533.3 0 480 0C426.7 0 373.3 0 320 0C266.7 0 213.3 0 160 0C106.7 0 53.3 0 26.7 0L0 0Z" fill="#d869d6"></path><path d="M0 80L26.7 75.8C53.3 71.7 106.7 63.3 160 62.2C213.3 61 266.7 67 320 62.3C373.3 57.7 426.7 42.3 480 43C533.3 43.7 586.7 60.3 640 63.8C693.3 67.3 746.7 57.7 800 59.5C853.3 61.3 906.7 74.7 933.3 81.3L960 88L960 0L933.3 0C906.7 0 853.3 0 800 0C746.7 0 693.3 0 640 0C586.7 0 533.3 0 480 0C426.7 0 373.3 0 320 0C266.7 0 213.3 0 160 0C106.7 0 53.3 0 26.7 0L0 0Z" fill="#fd2187"></path></svg>