<svg id="visual" viewBox="0 0 960 540" width="960" height="540" xmlns="http://www.w3.org/2000/svg" xmlns:xlink="http://www.w3.org/1999/xlink" version="1.1"><path d="M0 284L26.7 290.5C53.3 297 106.7 310 160 318.5C213.3 327 266.7 331 320 323.5C373.3 316 426.7 297 480 290.5C533.3 284 586.7 290 640 303.7C693.3 317.3 746.7 338.7 800 333.2C853.3 327.7 906.7 295.3 933.3 279.2L960 263L960 541L933.3 541C906.7 541 853.3 541 800 541C746.7 541 693.3 541 640 541C586.7 541 533.3 541 480 541C426.7 541 373.3 541 320 541C266.7 541 213.3 541 160 541C106.7 541 53.3 541 26.7 541L0 541Z" fill="#00d5ff"></path><path d="M0 373L26.7 363.2C53.3 353.3 106.7 333.7 160 326C213.3 318.3 266.7 322.7 320 332.3C373.3 342 426.7 357 480 356.7C533.3 356.3 586.7 340.7 640 348.3C693.3 356 746.7 387 800 389.5C853.3 392 906.7 366 933.3 353L960 340L960 541L933.3 541C906.7 541 853.3 541 800 541C746.7 541 693.3 541 640 541C586.7 541 533.3 541 480 541C426.7 541 373.3 541 320 541C266.7 541 213.3 541 160 541C106.7 541 53.3 541 26.7 541L0 541Z" fill="#3ebbff"></path><path d="M0 412L26.7 413.5C53.3 415 106.7 418 160 421C213.3 424 266.7 427 320 430.3C373.3 433.7 426.7 437.3 480 426.2C533.3 415 586.7 389 640 383.8C693.3 378.7 746.7 394.3 800 404.8C853.3 415.3 906.7 420.7 933.3 423.3L960 426L960 541L933.3 541C906.7 541 853.3 541 800 541C746.7 541 693.3 541 640 541C586.7 541 533.3 541 480 541C426.7 541 373.3 541 320 541C266.7 541 213.3 541 160 541C106.7 541 53.3 541 26.7 541L0 541Z" fill="#9399ff"></path><path d="M0 470L26.7 472.8C53.3 475.7 106.7 481.3 160 476.3C213.3 471.3 266.7 455.7 320 441C373.3 426.3 426.7 412.7 480 411.2C533.3 409.7 586.7 420.3 640 431.8C693.3 443.3 746.7 455.7 800 464C853.3 472.3 906.7 476.7 933.3 478.8L960 481L960 541L933.3 541C906.7 541 853.3 541 800 541C746.7 541 693.3 541 640 541C586.7 541 533.3 541 480 541C426.7 541 373.3 541 320 541C266.7 541 213.3 541 160 541C106.7 541 53.3 541 26.7 541L0 541Z" fill="#d869d6"></path><path d="M0 458L26.7 462.2C53.3 466.3 106.7 474.7 160 475.8C213.3 477 266.7 471 320 475.7C373.3 480.3 426.7 495.7 480 495C533.3 494.3 586.7 477.7 640 474.2C693.3 470.7 746.7 480.3 800 478.5C853.3 476.7 906.7 463.3 933.3 456.7L960 450L960 541L933.3 541C906.7 541 853.3 541 800 541C746.7 541 693.3 541 640 541C586.7 541 533.3 541 480 541C426.7 541 373.3 541 320 541C266.7 541 213.3 541 160 541C106.7 541 53.3 541 26.7 541L0 541Z" fill="#fd2187"></path></svg>