<?xml version="1.0" encoding="UTF-8" standalone="no"?>
<!DOCTYPE svg PUBLIC "-//W3C//DTD SVG 1.1//EN" "http://www.w3.org/Graphics/SVG/1.1/DTD/svg11.dtd">
<svg width="100%" height="100%" viewBox="0 0 450 400" version="1.1" xmlns="http://www.w3.org/2000/svg" xmlns:xlink="http://www.w3.org/1999/xlink" xml:space="preserve" xmlns:serif="http://www.serif.com/" style="fill-rule:evenodd;clip-rule:evenodd;stroke-linecap:round;stroke-miterlimit:10;">
    <g transform="matrix(1,0,0,1,-370.33,-1.50251)">
        <g id="Working-with-Them" serif:id="Working with Them" transform="matrix(0.375,0,0,1,370.33,1.50251)">
            <g>
                <rect x="0" y="0" width="1200" height="400" style="fill:none;"/>
                <g transform="matrix(1,0,0,1,-66.3632,0)">
                    <g transform="matrix(2.66667,0,0,1,356.075,197.9)">
                        <text x="42.278px" y="92.978px" style="font-family:'Montserrat-Light', 'Montserrat';font-weight:300;font-size:24px;">DESIGNER &amp;</text>
                        <text x="42.278px" y="116.978px" style="font-family:'Montserrat-Light', 'Montserrat';font-weight:300;font-size:24px;">DE<tspan x="77.918px 94.046px 110.102px 123.806px 143.918px 160.838px " y="116.978px 116.978px 116.978px 116.978px 116.978px 116.978px ">VELOPE</tspan>R</text>
                    </g>
                    <g transform="matrix(2.66667,0,0,1,367.043,-3.97861)">
                        <text x="87.343px" y="200.903px" style="font-family:'Montserrat-SemiBold', 'Montserrat';font-weight:600;font-size:24px;">Y<tspan x="102.487px " y="200.903px ">O</tspan>U</text>
                    </g>
                    <g transform="matrix(2.66667,0,0,1,-1569.36,-152.5)">
                        <text x="666.07px" y="261.015px" style="font-family:'Montserrat-Light', 'Montserrat';font-weight:300;font-size:24px;">SEO &amp;</text>
                        <text x="666.07px" y="285.015px" style="font-family:'Montserrat-Light', 'Montserrat';font-weight:300;font-size:24px;">C<tspan x="682.894px " y="285.015px ">O</tspan>NTENT</text>
                    </g>
                    <g transform="matrix(1.77778,0,0,1,-821.848,22.3503)">
                        <g transform="matrix(1.01124e-17,-0.265634,0.193771,-5.59926e-18,797.691,339.052)">
                            <g transform="matrix(-1.63173e-16,7.74108,-3.76458,1.96463e-16,1360.53,-1538.27)">
                                <path d="M213.154,256.562L217.744,259.424L218.62,254.087L213.154,256.562Z" style="fill:none;stroke:black;stroke-width:2px;"/>
                                <path d="M215.887,255.325C214.599,251.086 213.873,245.241 213.873,236.476C213.873,222.904 215.999,216.084 218.487,211.886" style="fill:none;stroke:black;stroke-width:2px;stroke-linejoin:round;stroke-miterlimit:1.5;"/>
                            </g>
                        </g>
                        <g transform="matrix(3.86838e-17,0.265634,-0.193771,2.14194e-17,886.878,89.1993)">
                            <g transform="matrix(6.24201e-16,-7.74108,3.76458,7.51547e-16,-419.937,1998.54)">
                                <path d="M243.733,216.39L239.144,213.528L238.268,218.865L243.733,216.39Z" style="fill:none;stroke:black;stroke-width:2px;"/>
                                <path d="M241.001,217.628C242.289,221.866 243.015,227.711 243.015,236.476C243.015,250.048 240.888,256.868 238.401,261.066" style="fill:none;stroke:black;stroke-width:2px;stroke-linejoin:round;stroke-miterlimit:1.5;"/>
                            </g>
                        </g>
                    </g>
                    <g transform="matrix(1.29578,-0.456431,1.82573,0.728875,-922.377,379.906)">
                        <g transform="matrix(1.01124e-17,-0.265634,0.193771,-5.59926e-18,797.691,339.052)">
                            <g transform="matrix(-2.57741,5.64228,-2.7439,-5.29991,1363.17,-11.1637)">
                                <path d="M187.711,176.64L193.015,175.584L190,171.094L187.711,176.64Z" style="fill:none;stroke:black;stroke-width:2px;"/>
                                <path d="M188.855,173.867C185.014,171.659 180.484,167.896 174.483,161.508C165.191,151.616 162.071,145.189 161.01,140.426" style="fill:none;stroke:black;stroke-width:2px;stroke-linejoin:round;stroke-miterlimit:1.5;"/>
                            </g>
                        </g>
                        <g transform="matrix(3.86838e-17,0.265634,-0.193771,2.14194e-17,886.878,89.1993)">
                            <g transform="matrix(2.57741,-5.64228,2.7439,5.29991,-422.579,471.432)">
                                <path d="M182.495,126.424L177.191,127.48L180.206,131.97L182.495,126.424Z" style="fill:none;stroke:black;stroke-width:2px;"/>
                                <path d="M181.351,129.197C185.192,131.404 189.722,135.168 195.723,141.556C205.015,151.448 208.135,157.875 209.196,162.638" style="fill:none;stroke:black;stroke-width:2px;stroke-linejoin:round;stroke-miterlimit:1.5;"/>
                            </g>
                        </g>
                    </g>
                    <g transform="matrix(0.500885,-0.187832,0.243586,0.0913447,517.302,224.606)">
                        <g transform="matrix(2.66196,5.47377,-2.66196,5.47377,147.749,-2155.07)">
                            <path d="M253.446,160.683L254.667,165.951L259.061,162.798L253.446,160.683Z" style="fill:none;stroke:black;stroke-width:2px;"/>
                            <path d="M256.253,161.74C258.34,157.832 261.959,153.186 268.157,146.988C277.754,137.391 284.08,134.072 288.807,132.863" style="fill:none;stroke:black;stroke-width:2px;stroke-linejoin:round;stroke-miterlimit:1.5;"/>
                        </g>
                    </g>
                    <g transform="matrix(-0.641732,0.240649,-0.243586,-0.0913447,1179.82,60.2469)">
                        <g transform="matrix(-2.07771,-5.47377,2.07771,-5.47377,742.367,2615.34)">
                            <path d="M312.806,144.144L311.925,138.808L307.338,141.674L312.806,144.144Z" style="fill:none;stroke:black;stroke-width:2px;"/>
                            <path d="M310.072,142.909C307.235,147.896 302.329,154.028 293.652,162.705C281.357,175 273.675,179.675 268.113,181.719" style="fill:none;stroke:black;stroke-width:2px;stroke-linejoin:round;stroke-miterlimit:1.5;"/>
                        </g>
                    </g>
                    <g transform="matrix(2.66667,0,0,1,-102.917,15.8266)">
                        <text x="325.184px" y="104.688px" style="font-family:'Montserrat-Light', 'Montserrat';font-weight:300;font-size:24px;">BRANDING</text>
                    </g>
                </g>
            </g>
        </g>
    </g>
</svg>
